<svg width="219" height="214" viewBox="0 0 219 214" fill="none" xmlns="http://www.w3.org/2000/svg">
<g clip-path="url(#clip0_1_850)">
<path fill-rule="evenodd" clip-rule="evenodd" d="M106 167.48C106 174.843 83.6142 180.81 56.0003 180.81C28.3858 180.81 5.99989 174.843 5.99989 167.48C5.99989 160.119 28.3858 154.151 56.0003 154.151C83.6142 154.151 106 160.119 106 167.48Z" fill="#D4DBE0"/>
<path d="M106 164.674H6V167.814H106V164.674Z" fill="#D4DBE0"/>
<mask id="mask0_1_850" style="mask-type:luminance" maskUnits="userSpaceOnUse" x="6" y="152" width="100" height="27">
<path d="M6.03758 152.076H105.981V178.923H6.03758V152.076Z" fill="white"/>
</mask>
<g mask="url(#mask0_1_850)">
<path fill-rule="evenodd" clip-rule="evenodd" d="M105.981 165.5C105.981 172.914 83.6081 178.923 56.01 178.923C28.4107 178.923 6.03758 172.914 6.03758 165.5C6.03758 158.086 28.4107 152.076 56.01 152.076C83.6081 152.076 105.981 158.086 105.981 165.5Z" fill="#E8ECF0"/>
</g>
<path fill-rule="evenodd" clip-rule="evenodd" d="M92 164.499C92 169.747 75.659 174 55.4998 174C35.3416 174 19 169.747 19 164.499C19 159.252 35.3416 155 55.4998 155C75.659 155 92 159.252 92 164.499Z" fill="#D4DBE0"/>
<path fill-rule="evenodd" clip-rule="evenodd" d="M55 54H56V0H55V54Z" fill="#D4DBE0"/>
<mask id="mask1_1_850" style="mask-type:luminance" maskUnits="userSpaceOnUse" x="40" y="49" width="32" height="9">
<path d="M40 49.1234H71.9931V57.0282H40V49.1234Z" fill="white"/>
</mask>
<g mask="url(#mask1_1_850)">
<path fill-rule="evenodd" clip-rule="evenodd" d="M55.9965 49.1234C47.1624 49.1234 40 52.6624 40 57.0282H71.9933C71.9933 52.6624 64.8308 49.1234 55.9965 49.1234Z" fill="#D4DBE0"/>
</g>
<path fill-rule="evenodd" clip-rule="evenodd" d="M55.3329 49.1316C63.3197 50.6249 64.8779 56.9636 64.8779 56.9636C64.8779 56.9636 65.4518 57.0129 67.8971 56.0758C64.9312 49.959 56.5343 49.2043 55.4179 49.1307C55.3905 49.1314 55.3617 49.1314 55.3329 49.1316Z" fill="#E8ECF0"/>
<mask id="mask2_1_850" style="mask-type:luminance" maskUnits="userSpaceOnUse" x="40" y="55" width="32" height="4">
<path d="M40.0308 55.6075H71.9624V58.4181H40.0308V55.6075Z" fill="white"/>
</mask>
<g mask="url(#mask2_1_850)">
<path fill-rule="evenodd" clip-rule="evenodd" d="M71.9624 57.0129C71.9624 57.789 64.8137 58.4181 55.9965 58.4181C47.1793 58.4181 40.0308 57.789 40.0308 57.0129C40.0308 56.2365 47.1793 55.6075 55.9965 55.6075C64.8137 55.6075 71.9624 56.2365 71.9624 57.0129Z" fill="#BFC9D2"/>
</g>
<path fill-rule="evenodd" clip-rule="evenodd" d="M57.612 55.6147C57.0811 55.6098 56.5422 55.6075 55.9965 55.6075C54.9626 55.6075 53.9538 55.6165 52.975 55.6329C52.9883 56.8343 54.0204 57.8045 55.2926 57.8045C56.5722 57.8045 57.6091 56.8245 57.612 55.6147Z" fill="white"/>
<path fill-rule="evenodd" clip-rule="evenodd" d="M55.5003 161.73C50.8263 161.73 46.436 162.054 43.1383 162.642C39.3287 163.32 38.3123 164.129 38.3123 164.5C38.3123 164.871 39.3287 165.679 43.1383 166.358C46.4363 166.946 50.8266 167.269 55.5003 167.269C60.1737 167.269 64.5637 166.946 67.8614 166.358C71.6717 165.679 72.688 164.871 72.688 164.5C72.688 164.129 71.6717 163.32 67.8614 162.642C64.5637 162.054 60.1737 161.73 55.5003 161.73ZM55.5003 168C46.5554 168 37.5 166.797 37.5 164.5C37.5 162.202 46.5554 161 55.5003 161C64.4449 161 73.5 162.202 73.5 164.5C73.5 166.797 64.4449 168 55.5003 168Z" fill="#BFC9D2"/>
<path fill-rule="evenodd" clip-rule="evenodd" d="M67.5 167H68.5V140H67.5V167Z" fill="#BFC9D2"/>
<path fill-rule="evenodd" clip-rule="evenodd" d="M42.5 167H43.5V140H42.5V167Z" fill="#BFC9D2"/>
<path fill-rule="evenodd" clip-rule="evenodd" d="M49.5 162H50.5V141H49.5V162Z" fill="#BFC9D2"/>
<path fill-rule="evenodd" clip-rule="evenodd" d="M61.5 162H62.5V141H61.5V162Z" fill="#BFC9D2"/>
<path fill-rule="evenodd" clip-rule="evenodd" d="M32.3497 140.5C32.9592 140.782 34.6996 141.333 39.4764 141.819C44.0025 142.28 49.8701 142.535 56.0002 142.535C62.1305 142.535 67.9984 142.28 72.5236 141.819C77.3007 141.333 79.0408 140.782 79.6506 140.5C79.0408 140.219 77.3007 139.667 72.5236 139.181C67.9984 138.72 62.1305 138.466 56.0002 138.466C49.8701 138.466 44.0025 138.72 39.4764 139.181C34.6996 139.667 32.9592 140.219 32.3497 140.5ZM56.0002 144C49.3708 144 43.133 143.71 38.4366 143.184C31.4615 142.403 30.5 141.433 30.5 140.5C30.5 139.568 31.4615 138.597 38.4366 137.816C43.133 137.29 49.3708 137 56.0002 137C62.6301 137 68.867 137.29 73.564 137.816C80.5382 138.597 81.5 139.568 81.5 140.5C81.5 141.433 80.5382 142.403 73.564 143.184C68.867 143.71 62.6301 144 56.0002 144Z" fill="#BFC9D2"/>
<path fill-rule="evenodd" clip-rule="evenodd" d="M86.5 136C86.5 138.762 72.6206 141 55.4998 141C38.3788 141 24.5 138.762 24.5 136C24.5 133.238 38.3788 131 55.4998 131C72.6206 131 86.5 133.238 86.5 136Z" fill="#E8ECF0"/>
<path fill-rule="evenodd" clip-rule="evenodd" d="M24.5 136H86.5V135L24.5 135.4V136Z" fill="#E8ECF0"/>
<path fill-rule="evenodd" clip-rule="evenodd" d="M86.5 135C86.5 137.762 72.6206 140 55.4998 140C38.3788 140 24.5 137.762 24.5 135C24.5 132.239 38.3788 130 55.4998 130C72.6206 130 86.5 132.239 86.5 135Z" fill="#D4DBE0"/>
<path d="M158.775 124.75H161.099V158H158.775V124.75Z" fill="#E8ECF0"/>
<path fill-rule="evenodd" clip-rule="evenodd" d="M199.831 154.907H198.282V62.1163H199.831V154.907Z" fill="#D4DBE0"/>
<path fill-rule="evenodd" clip-rule="evenodd" d="M183.563 76.0349H213L207.744 53.6105H188.557L183.563 76.0349Z" fill="#E8ECF0"/>
<path fill-rule="evenodd" clip-rule="evenodd" d="M187.437 158C187.604 151.566 192.74 146.401 199.056 146.401C205.372 146.401 210.509 151.566 210.676 158H187.437Z" fill="#D4DBE0"/>
<path fill-rule="evenodd" clip-rule="evenodd" d="M204.064 60.3377C204.064 57.8611 203.247 55.5543 201.843 53.6105H207.744L213 76.0349H183.563L184.478 71.93C186.142 72.5339 187.962 72.8692 189.871 72.8692C197.71 72.8692 204.064 67.2586 204.064 60.3377Z" fill="#D4DBE0"/>
<path fill-rule="evenodd" clip-rule="evenodd" d="M195.183 158H160.324V126.297H195.183V158Z" fill="#E8ECF0"/>
<path fill-rule="evenodd" clip-rule="evenodd" d="M192.859 142.535H162.648V128.616H192.859V142.535Z" fill="#D4DBE0"/>
<path fill-rule="evenodd" clip-rule="evenodd" d="M192.859 155.68H162.648V141.762H192.859V155.68Z" fill="#D4DBE0"/>
<path fill-rule="evenodd" clip-rule="evenodd" d="M172.018 134.029H183.49C183.958 134.029 184.338 134.376 184.338 134.803C184.338 135.229 183.958 135.576 183.49 135.576H172.018C171.55 135.576 171.169 135.229 171.169 134.803C171.169 134.376 171.55 134.029 172.018 134.029Z" fill="#E8ECF0"/>
<path fill-rule="evenodd" clip-rule="evenodd" d="M172.018 147.948H183.49C183.958 147.948 184.338 148.294 184.338 148.721C184.338 149.148 183.958 149.494 183.49 149.494H172.018C171.55 149.494 171.169 149.148 171.169 148.721C171.169 148.294 171.55 147.948 172.018 147.948Z" fill="#E8ECF0"/>
<path fill-rule="evenodd" clip-rule="evenodd" d="M192.859 142.535H161.873V140.988H192.859V142.535Z" fill="#E8ECF0"/>
<path fill-rule="evenodd" clip-rule="evenodd" d="M195.183 126.297L192.859 124.75H158.652L160.324 126.297H195.183Z" fill="#E8ECF0"/>
<path fill-rule="evenodd" clip-rule="evenodd" d="M184.079 122.043C184.079 121.332 184.543 120.755 185.112 120.755C185.683 120.755 186.145 121.332 186.145 122.043C186.145 122.755 185.683 123.332 185.112 123.332C184.543 123.332 184.079 122.755 184.079 122.043ZM183.563 122.043C183.563 123.112 184.256 123.977 185.112 123.977C185.969 123.977 186.662 123.112 186.662 122.043C186.662 120.976 185.969 120.11 185.112 120.11C184.256 120.11 183.563 120.976 183.563 122.043Z" fill="#D4DBE0"/>
<path fill-rule="evenodd" clip-rule="evenodd" d="M182.523 113.924H179.957C179.81 113.924 179.69 113.751 179.69 113.538C179.69 113.324 179.81 113.151 179.957 113.151H182.523C182.67 113.151 182.789 113.324 182.789 113.538C182.789 113.751 182.67 113.924 182.523 113.924Z" fill="#E8ECF0"/>
<path fill-rule="evenodd" clip-rule="evenodd" d="M182.994 116.877H180.744C180.616 116.877 180.511 116.767 180.511 116.631C180.511 116.495 180.616 116.385 180.744 116.385H181.271C181.401 116.385 181.505 116.275 181.505 116.139C181.505 116.003 181.401 115.892 181.271 115.892H181.128C181.064 115.892 181.006 115.864 180.964 115.821C180.921 115.777 180.895 115.715 180.895 115.647C180.895 115.512 181 115.401 181.128 115.401H182.532C182.66 115.401 182.766 115.512 182.766 115.647C182.766 115.783 182.66 115.892 182.532 115.892H182.178C182.049 115.892 181.945 116.003 181.945 116.139C181.945 116.275 182.049 116.385 182.178 116.385H182.994C183.059 116.385 183.116 116.413 183.159 116.457C183.201 116.502 183.228 116.563 183.228 116.631C183.228 116.767 183.123 116.877 182.994 116.877ZM176.592 116.139C176.592 116.275 176.696 116.385 176.825 116.385H177.558C177.622 116.385 177.68 116.413 177.722 116.457C177.765 116.502 177.791 116.563 177.791 116.631C177.791 116.767 177.686 116.877 177.558 116.877H177.324C177.195 116.877 177.09 116.987 177.09 117.122C177.09 117.259 177.195 117.368 177.324 117.368H178.788C178.852 117.368 178.91 117.397 178.952 117.441C178.994 117.485 179.021 117.547 179.021 117.615C179.021 117.751 178.916 117.861 178.787 117.861H178.553C178.424 117.861 178.319 117.971 178.319 118.107C178.319 118.243 178.424 118.354 178.553 118.354H181.722C181.787 118.354 181.845 118.381 181.888 118.424C181.93 118.469 181.956 118.531 181.956 118.599C181.956 118.735 181.851 118.845 181.722 118.845H180.939C180.809 118.845 180.704 118.955 180.704 119.091C180.704 119.227 180.809 119.337 180.939 119.337H183.91C184.039 119.337 184.143 119.227 184.143 119.091C184.143 118.955 184.039 118.845 183.91 118.845H183.675C183.546 118.845 183.441 118.735 183.441 118.599C183.441 118.463 183.546 118.354 183.675 118.354H184.588C184.716 118.354 184.821 118.243 184.821 118.107C184.821 117.971 184.716 117.861 184.588 117.861H181.974C181.845 117.861 181.741 117.751 181.741 117.615C181.741 117.479 181.845 117.368 181.974 117.368H186.799C186.928 117.368 187.033 117.259 187.033 117.122C187.033 116.987 186.928 116.877 186.799 116.877H186.181C186.053 116.877 185.948 116.767 185.948 116.631C185.948 116.495 186.053 116.385 186.181 116.385H187.203C187.333 116.385 187.437 116.275 187.437 116.139C187.437 116.003 187.333 115.892 187.203 115.892H185.335C185.271 115.892 185.212 115.864 185.17 115.821C185.129 115.777 185.102 115.715 185.102 115.647C185.102 115.512 185.206 115.401 185.335 115.401H185.686C185.815 115.401 185.92 115.29 185.92 115.155C185.92 115.019 185.815 114.908 185.686 114.908H184.124H184.125C184.062 114.908 184.003 114.88 183.96 114.836C183.918 114.793 183.892 114.731 183.892 114.663C183.892 114.527 183.997 114.417 184.125 114.417H184.682C184.811 114.417 184.915 114.306 184.915 114.171C184.915 114.035 184.811 113.924 184.682 113.924H178.763C178.635 113.924 178.53 114.035 178.53 114.171C178.53 114.306 178.635 114.417 178.763 114.417H180.939C181.067 114.417 181.171 114.527 181.171 114.663C181.171 114.799 181.067 114.908 180.939 114.908H177.324C177.195 114.908 177.09 115.019 177.09 115.155C177.09 115.29 177.195 115.401 177.324 115.401H177.941C178.07 115.401 178.175 115.512 178.175 115.647C178.175 115.783 178.07 115.892 177.941 115.892H176.825C176.696 115.892 176.592 116.003 176.592 116.139Z" fill="#E8ECF0"/>
<path fill-rule="evenodd" clip-rule="evenodd" d="M184.64 125.523C184.901 125.523 185.113 125.322 185.113 125.074V119.746C185.113 119.52 184.92 119.337 184.683 119.337H180.121C179.883 119.337 179.69 119.52 179.69 119.746V125.074C179.69 125.322 179.902 125.523 180.164 125.523H184.64Z" fill="#D4DBE0"/>
<path d="M87.9051 134.413C88.5984 133.879 92.63 134.008 100 134.8V137.8H88C87.2435 136.076 87.2119 134.947 87.9051 134.413Z" fill="#E5858C"/>
<path style="mix-blend-mode:multiply" d="M87.9051 134.413C88.5984 133.879 92.63 134.008 100 134.8V137.8H88C87.2435 136.076 87.2119 134.947 87.9051 134.413Z" fill="url(#paint0_linear_1_850)" fill-opacity="0.4"/>
<path d="M90.927 158.462C91.6203 158.75 95.5086 158.672 102.592 158.227V156.61H90.5921C90.1222 157.557 90.2338 158.174 90.927 158.462Z" fill="#E5858C"/>
<path style="mix-blend-mode:multiply" d="M90.927 158.462C91.6203 158.75 95.5086 158.672 102.592 158.227V156.61H90.5921C90.1222 157.557 90.2338 158.174 90.927 158.462Z" fill="url(#paint1_linear_1_850)"/>
<path fill-rule="evenodd" clip-rule="evenodd" d="M150.743 187.99C150.743 187.99 148.805 153.148 141.404 142.159C134.004 131.171 123.54 130.734 122.733 132.325C119.826 135.232 134.587 148.055 134.587 155.408V164.461C134.587 167.778 131.898 170.466 128.581 170.466H99.5672C99.5672 170.466 109.08 182.847 116.476 188.777C123.871 194.708 138.926 208.818 138.926 208.818L150.743 187.99Z" fill="#EF888B"/>
<path fill-rule="evenodd" clip-rule="evenodd" d="M87.8599 134.436C88.2628 133.919 96.9731 137.857 97.0021 141.401C97.0311 144.945 92.884 143.432 92.884 143.432C92.884 143.432 98.0154 145.788 97.9395 148.115C97.8635 150.441 93.4588 151.681 93.4588 151.681C93.4588 151.681 95.9092 152.764 95.9914 154.68C96.0735 156.595 91.1259 158.46 91.1259 158.46C91.1259 158.46 89.7442 158.843 89.2564 153.73C89.1542 151.709 90.0774 151.169 90.0774 151.169C90.0774 151.169 88.5668 150.143 88.3052 146.198C88.2022 144.362 88.985 143.004 88.985 143.004C88.985 143.004 87.5041 141.637 87.2314 137.916C86.9757 134.796 87.8599 134.436 87.8599 134.436Z" fill="#EF888B"/>
<path fill-rule="evenodd" clip-rule="evenodd" d="M96.4459 143.099L96.4465 143.097C96.6263 142.904 96.7656 142.651 96.8597 142.334C95.4616 143.459 90.0266 140.952 88.2725 141.956C88.649 142.667 88.9851 143.005 88.9851 143.005C88.9851 143.005 89.1101 142.455 92.884 143.432C94.9918 143.978 95.9727 143.567 96.4459 143.099Z" fill="#E17981"/>
<path fill-rule="evenodd" clip-rule="evenodd" d="M89.4349 150.411C89.7384 150.878 90.0032 151.109 90.0433 151.138C90.4729 151.089 91.4071 151.151 93.4677 151.679C93.5118 151.665 96.6681 150.757 97.6422 149.051C96.2516 150.124 91.9145 150.428 89.4349 150.411Z" fill="#E17981"/>
<path fill-rule="evenodd" clip-rule="evenodd" d="M89.993 157.311C90.4882 158.659 91.1257 158.46 91.1257 158.46C91.1257 158.46 94.5707 157.372 95.6452 155.655C94.2809 156.612 91.7912 157.386 89.993 157.311Z" fill="#E17981"/>
<path fill-rule="evenodd" clip-rule="evenodd" d="M139.968 197.369L139.964 197.368C128.578 196.15 113.439 185.783 112.762 185.317C113.865 186.327 114.98 187.311 116.097 188.207C121.103 192.221 129.547 199.919 134.525 204.514C135.858 202.454 137.774 199.928 139.968 197.369Z" fill="#E17981"/>
<path fill-rule="evenodd" clip-rule="evenodd" d="M184.591 214.507H186.655C171.549 199.345 157.229 185.611 155.151 185.435C149.174 184.929 132.425 205.185 132.63 208.562C132.655 208.95 133.802 211.063 135.841 214.507H184.591Z" fill="#D44454"/>
<path fill-rule="evenodd" clip-rule="evenodd" d="M130.827 172.802C136.442 170.359 134.705 163.542 134.705 163.542L134.583 163.591C134.583 167.467 132.166 170.454 127.402 170.454H108.406C108.406 170.454 125.211 175.246 130.827 172.802Z" fill="#E17981"/>
<path fill-rule="evenodd" clip-rule="evenodd" d="M128.487 170.088H99.5058C96.1703 170.088 93.4664 167.384 93.4664 164.05V93.0615C93.4664 89.7268 96.1703 87.0221 99.5058 87.0221H128.487C131.822 87.0221 134.526 89.7268 134.526 93.0615V164.05C134.526 167.384 131.822 170.088 128.487 170.088Z" fill="#1A3F61"/>
<path fill-rule="evenodd" clip-rule="evenodd" d="M128.487 170.088H99.5058C96.1703 170.088 93.4664 167.384 93.4664 164.05V93.0615C93.4664 89.7268 96.1703 87.0221 99.5058 87.0221H128.487C131.822 87.0221 134.526 89.7268 134.526 93.0615V164.05C134.526 167.384 131.822 170.088 128.487 170.088Z" stroke="#1A3F61" stroke-width="0.746528"/>
<path fill-rule="evenodd" clip-rule="evenodd" d="M128.046 88.9703H125.093C124.752 88.9703 124.448 89.1846 124.332 89.5063L123.92 90.6642C123.65 91.416 122.938 91.9176 122.14 91.9176H105.736C104.892 91.9176 104.151 91.3585 103.919 90.5478L103.636 89.5556C103.536 89.2092 103.22 88.9703 102.859 88.9703H99.9463C97.4724 88.9703 95.4672 90.9763 95.4672 93.4495V163.661C95.4672 166.135 97.4724 168.14 99.9463 168.14H128.046C130.52 168.14 132.526 166.135 132.526 163.661V93.4495C132.526 90.9763 130.52 88.9703 128.046 88.9703Z" fill="#FEFEFE"/>
<path fill-rule="evenodd" clip-rule="evenodd" d="M105.769 130.885C105.769 131.925 104.925 132.769 103.885 132.769C102.844 132.769 102 131.925 102 130.885C102 129.844 102.844 129 103.885 129C104.925 129 105.769 129.844 105.769 130.885Z" fill="#D44454"/>
<path fill-rule="evenodd" clip-rule="evenodd" d="M110.824 130.885C110.824 131.925 109.98 132.769 108.939 132.769C107.899 132.769 107.055 131.925 107.055 130.885C107.055 129.844 107.899 129 108.939 129C109.98 129 110.824 129.844 110.824 130.885Z" fill="#00B1E6"/>
<path fill-rule="evenodd" clip-rule="evenodd" d="M115.878 130.885C115.878 131.925 115.034 132.769 113.994 132.769C112.953 132.769 112.109 131.925 112.109 130.885C112.109 129.844 112.953 129 113.994 129C115.034 129 115.878 129.844 115.878 130.885Z" fill="#FFBB58"/>
<path fill-rule="evenodd" clip-rule="evenodd" d="M120.933 130.885C120.933 131.925 120.089 132.769 119.048 132.769C118.008 132.769 117.164 131.925 117.164 130.885C117.164 129.844 118.008 129 119.048 129C120.089 129 120.933 129.844 120.933 130.885Z" fill="#F2F5F8"/>
<path fill-rule="evenodd" clip-rule="evenodd" d="M125.987 130.885C125.987 131.925 125.143 132.769 124.103 132.769C123.062 132.769 122.218 131.925 122.218 130.885C122.218 129.844 123.062 129 124.103 129C125.143 129 125.987 129.844 125.987 130.885Z" fill="#F2F5F8"/>
<path fill-rule="evenodd" clip-rule="evenodd" d="M150.743 187.99C150.743 187.99 148.805 153.148 141.404 142.159C134.004 131.171 123.54 130.734 122.733 132.325C119.826 135.232 134.587 148.055 134.587 155.408V164.461C134.587 167.778 131.898 170.466 128.581 170.466H99.5672C99.5672 170.466 109.08 182.847 116.476 188.777C123.871 194.708 138.926 208.818 138.926 208.818L150.743 187.99Z" fill="#EF888B"/>
<path fill-rule="evenodd" clip-rule="evenodd" d="M87.8599 134.436C88.2628 133.919 96.9731 137.857 97.0021 141.401C97.0311 144.945 92.884 143.432 92.884 143.432C92.884 143.432 98.0154 145.788 97.9395 148.115C97.8635 150.441 93.4588 151.681 93.4588 151.681C93.4588 151.681 95.9092 152.764 95.9914 154.68C96.0735 156.595 91.1259 158.46 91.1259 158.46C91.1259 158.46 89.7442 158.843 89.2564 153.73C89.1542 151.709 90.0774 151.169 90.0774 151.169C90.0774 151.169 88.5668 150.143 88.3052 146.198C88.2022 144.362 88.985 143.004 88.985 143.004C88.985 143.004 87.5041 141.637 87.2314 137.916C86.9757 134.796 87.8599 134.436 87.8599 134.436Z" fill="#EF888B"/>
<path fill-rule="evenodd" clip-rule="evenodd" d="M96.4459 143.099L96.4465 143.097C96.6263 142.904 96.7656 142.651 96.8597 142.334C95.4616 143.459 90.0266 140.952 88.2725 141.956C88.649 142.667 88.9851 143.005 88.9851 143.005C88.9851 143.005 89.1101 142.455 92.884 143.432C94.9918 143.978 95.9727 143.567 96.4459 143.099Z" fill="#E17981"/>
<path fill-rule="evenodd" clip-rule="evenodd" d="M89.4349 150.411C89.7384 150.878 90.0032 151.109 90.0433 151.138C90.4729 151.089 91.4071 151.151 93.4677 151.679C93.5118 151.665 96.6681 150.757 97.6422 149.051C96.2516 150.124 91.9145 150.428 89.4349 150.411Z" fill="#E17981"/>
<path fill-rule="evenodd" clip-rule="evenodd" d="M89.993 157.311C90.4882 158.659 91.1257 158.46 91.1257 158.46C91.1257 158.46 94.5707 157.372 95.6452 155.655C94.2809 156.612 91.7912 157.386 89.993 157.311Z" fill="#E17981"/>
<path fill-rule="evenodd" clip-rule="evenodd" d="M139.968 197.369L139.964 197.368C128.578 196.15 113.439 185.783 112.762 185.317C113.865 186.327 114.98 187.311 116.097 188.207C121.103 192.221 129.547 199.919 134.525 204.514C135.858 202.454 137.774 199.928 139.968 197.369Z" fill="#E17981"/>
<path fill-rule="evenodd" clip-rule="evenodd" d="M184.591 214.507H186.655C171.549 199.345 157.229 185.611 155.151 185.435C149.174 184.929 132.425 205.185 132.63 208.562C132.655 208.95 133.802 211.063 135.841 214.507H184.591Z" fill="#D44454"/>
<path fill-rule="evenodd" clip-rule="evenodd" d="M130.827 172.802C136.442 170.359 134.705 163.542 134.705 163.542L134.583 163.591C134.583 167.467 132.166 170.454 127.402 170.454H108.406C108.406 170.454 125.211 175.246 130.827 172.802Z" fill="#E17981"/>
<g clip-path="url(#clip1_1_850)">
<path d="M113.223 110.357L115.778 117.341H118.334L115.778 110.357H113.223Z" fill="#3EA6DE"/>
<path d="M120.735 108.386C120.735 107.636 121.319 107 122.167 107C123.015 107 123.598 107.636 123.598 108.386C123.598 109.135 123.015 109.786 122.167 109.786C121.319 109.786 120.735 109.135 120.735 108.386Z" fill="#E02146"/>
<path d="M123.444 110.357V117.341L126 110.357H123.444Z" fill="#97C6DD"/>
<path d="M123.445 110.357H120.889V117.341L123.445 110.357Z" fill="#E02146"/>
<path d="M120.889 117.341H123.445V110.357L120.889 117.341Z" fill="#6A2E4A"/>
<path d="M113.222 110.357L113.222 117.341L115.778 110.357H113.222Z" fill="#97C6DD"/>
<path d="M113.222 110.357H110.667V117.341L113.222 110.357Z" fill="#E02146"/>
<path d="M110.667 117.341H113.222V110.357L110.667 117.341Z" fill="#6A2E4A"/>
<path d="M105.556 117.341C105.326 117.969 105.001 118.133 104.459 118.133C104.111 118.133 103.834 118.077 103.572 117.992L103.529 119.859C103.888 119.958 104.346 120 104.749 120C106.528 120 107.368 119.373 107.905 117.906L108.111 117.342L105.556 117.341ZM113.223 110.357L115.778 117.341H118.334L115.778 110.357H113.223ZM110.513 108.386C110.513 107.636 111.097 107 111.944 107C112.792 107 113.376 107.636 113.376 108.386C113.376 109.135 112.792 109.786 111.944 109.786C111.097 109.786 110.513 109.135 110.513 108.386Z" fill="#E02146"/>
<path d="M118.333 110.357L117.056 113.85L118.333 117.341L120.889 110.357H118.333ZM108.111 110.357L106.833 113.85L108.111 117.342L110.667 110.357H108.111Z" fill="#6A2E4A"/>
<path d="M103 110.357L105.556 117.341H108.111L105.556 110.357H103Z" fill="#E02146"/>
<path d="M105.556 110.357H103L104.278 113.85L105.556 110.357Z" fill="#6A2E4A"/>
<path d="M115.778 110.357H113.222L114.5 113.85L115.778 110.357ZM115.778 117.342H118.334L117.056 113.85L115.778 117.342ZM105.555 117.342H108.111L106.833 113.85L105.555 117.342Z" fill="#BA3353"/>
</g>
</g>
<defs>
<linearGradient id="paint0_linear_1_850" x1="717.014" y1="134.09" x2="717.014" y2="505.053" gradientUnits="userSpaceOnUse">
<stop stop-color="white" stop-opacity="0.5"/>
<stop offset="1" stop-opacity="0.5"/>
</linearGradient>
<linearGradient id="paint1_linear_1_850" x1="704.548" y1="158.632" x2="704.548" y2="-43.6084" gradientUnits="userSpaceOnUse">
<stop stop-color="white" stop-opacity="0.5"/>
<stop offset="1" stop-opacity="0.5"/>
</linearGradient>
<clipPath id="clip0_1_850">
<rect width="219" height="214" fill="white"/>
</clipPath>
<clipPath id="clip1_1_850">
<rect width="23" height="13" fill="white" transform="translate(103 107)"/>
</clipPath>
</defs>
</svg>
