<svg width="219" height="214" viewBox="0 0 219 214" fill="none" xmlns="http://www.w3.org/2000/svg">
<path fill-rule="evenodd" clip-rule="evenodd" d="M41 62H179V50H41V62Z" fill="#E8ECF0"/>
<mask id="mask0_1_994" style="mask-type:luminance" maskUnits="userSpaceOnUse" x="15" y="148" width="189" height="11">
<path d="M15 148.607H203.768V159H15V148.607Z" fill="white"/>
</mask>
<g mask="url(#mask0_1_994)">
<path fill-rule="evenodd" clip-rule="evenodd" d="M125.532 148.607C125.532 150.052 124.216 151.234 122.608 151.234H96.1623C94.5541 151.234 93.2384 150.052 93.2384 148.607H14.9997V154.222H15.0053C15.0667 156.855 18.3879 159 20.7109 159H198.056C200.383 159 203.702 156.855 203.763 154.222L203.768 148.607H125.532Z" fill="#D9E0E4"/>
</g>
<mask id="mask1_1_994" style="mask-type:luminance" maskUnits="userSpaceOnUse" x="15" y="42" width="189" height="117">
<path d="M15 159H204V42H15V159Z" fill="white"/>
</mask>
<g mask="url(#mask1_1_994)">
<path fill-rule="evenodd" clip-rule="evenodd" d="M41.8144 135.326H177.184V51.0543H41.8144V135.326ZM111.519 45.9967C111.519 47.1125 110.615 48.0165 109.5 48.0165C108.385 48.0165 107.481 47.1125 107.481 45.9967C107.481 44.881 108.385 43.977 109.5 43.977C110.615 43.977 111.519 44.881 111.519 45.9967ZM41.8782 146V144.25H53.0833V146H165.128V144.25H176.334V146H180.789C183.65 146 186 143.652 186 140.787V47.2038C186 44.3397 183.65 42 180.789 42H38.2104C35.3472 42 33 44.3397 33 47.2038V140.787C33 143.652 35.3472 146 38.2104 146H41.8782Z" fill="#D4DBE0"/>
</g>
<path d="M93 75H48C47.4477 75 47 75.4477 47 76C47 76.5523 47.4477 77 48 77H93C93.5523 77 94 76.5523 94 76C94 75.4477 93.5523 75 93 75Z" fill="#E8ECF0"/>
<path d="M71 69H48C47.4477 69 47 69.4477 47 70V71C47 71.5523 47.4477 72 48 72H71C71.5523 72 72 71.5523 72 71V70C72 69.4477 71.5523 69 71 69Z" fill="#E8ECF0"/>
<path d="M70 79H48C47.4477 79 47 79.4477 47 80C47 80.5523 47.4477 81 48 81H70C70.5523 81 71 80.5523 71 80C71 79.4477 70.5523 79 70 79Z" fill="#E8ECF0"/>
<path fill-rule="evenodd" clip-rule="evenodd" d="M70.7786 58H61.2216C61.0994 58 61 58.2945 61 58.6586C61 59.0219 61.0994 59.3165 61.2216 59.3165H70.7786C70.9009 59.3165 71 59.0219 71 58.6586C71 58.2945 70.9009 58 70.7786 58Z" fill="#D4DBE0"/>
<path fill-rule="evenodd" clip-rule="evenodd" d="M83.7786 58H74.2216C74.0994 58 74 58.2945 74 58.6586C74 59.0219 74.0994 59.3165 74.2216 59.3165H83.7786C83.9009 59.3165 84 59.0219 84 58.6586C84 58.2945 83.9009 58 83.7786 58Z" fill="#D4DBE0"/>
<path fill-rule="evenodd" clip-rule="evenodd" d="M56.7786 58H47.2216C47.0994 58 47 58.2945 47 58.6586C47 59.0219 47.0994 59.3165 47.2216 59.3165H56.7786C56.9009 59.3165 57 59.0219 57 58.6586C57 58.2945 56.9009 58 56.7786 58Z" fill="#D4DBE0"/>
<g clip-path="url(#clip0_1_994)">
<path d="M111.778 72.0986L114.222 78.5459H116.667L114.222 72.0986H111.778Z" fill="#3EA6DE"/>
<path d="M118.964 70.2792C118.964 69.5874 119.522 69 120.333 69C121.144 69 121.703 69.5874 121.703 70.2792C121.703 70.9709 121.144 71.5714 120.333 71.5714C119.522 71.5714 118.964 70.9709 118.964 70.2792Z" fill="#E02146"/>
<path d="M121.556 72.0988V78.546L124 72.0988H121.556Z" fill="#97C6DD"/>
<path d="M121.556 72.0988H119.111V78.546L121.556 72.0988Z" fill="#E02146"/>
<path d="M119.111 78.5459H121.556V72.0988L119.111 78.5459Z" fill="#6A2E4A"/>
<path d="M111.778 72.0988L111.778 78.546L114.222 72.0988H111.778Z" fill="#97C6DD"/>
<path d="M111.778 72.0988H109.333V78.546L111.778 72.0988Z" fill="#E02146"/>
<path d="M109.334 78.5459H111.778V72.0988L109.334 78.5459Z" fill="#6A2E4A"/>
<path d="M104.445 78.546C104.225 79.125 103.914 79.277 103.395 79.277C103.063 79.277 102.798 79.2248 102.547 79.1464L102.506 80.8695C102.849 80.9609 103.287 81 103.673 81C105.375 81 106.179 80.4209 106.692 79.0671L106.889 78.546L104.445 78.546ZM111.778 72.0986L114.222 78.5459H116.667L114.222 72.0986H111.778ZM109.186 70.2792C109.186 69.5874 109.745 69 110.556 69C111.367 69 111.925 69.5874 111.925 70.2792C111.925 70.9709 111.367 71.5714 110.556 71.5714C109.745 71.5714 109.186 70.9709 109.186 70.2792Z" fill="#E02146"/>
<path d="M116.667 72.0988L115.444 75.3228L116.667 78.546L119.111 72.0988H116.667ZM106.889 72.0988L105.667 75.3228L106.889 78.5461L109.333 72.0988H106.889Z" fill="#6A2E4A"/>
<path d="M102 72.0986L104.444 78.5459H106.889L104.445 72.0986H102Z" fill="#E02146"/>
<path d="M104.445 72.0986H102L103.222 75.3228L104.445 72.0986Z" fill="#6A2E4A"/>
<path d="M114.222 72.0986H111.778L113 75.3228L114.222 72.0986ZM114.222 78.5461H116.667L115.445 75.3229L114.222 78.5461ZM104.444 78.5461H106.889L105.667 75.3229L104.444 78.5461Z" fill="#BA3353"/>
</g>
<defs>
<clipPath id="clip0_1_994">
<rect width="22" height="12" fill="white" transform="translate(102 69)"/>
</clipPath>
</defs>
</svg>
