<svg width="219" height="214" viewBox="0 0 219 214" fill="none" xmlns="http://www.w3.org/2000/svg">
<g clip-path="url(#clip0_1_1076)">
<path fill-rule="evenodd" clip-rule="evenodd" d="M41 62H179V50H41V62Z" fill="#E8ECF0"/>
<mask id="mask0_1_1076" style="mask-type:luminance" maskUnits="userSpaceOnUse" x="15" y="148" width="189" height="11">
<path d="M15 148.607H203.768V159H15V148.607Z" fill="white"/>
</mask>
<g mask="url(#mask0_1_1076)">
<path fill-rule="evenodd" clip-rule="evenodd" d="M125.532 148.607C125.532 150.052 124.216 151.234 122.608 151.234H96.1623C94.5541 151.234 93.2384 150.052 93.2384 148.607H14.9997V154.222H15.0053C15.0667 156.855 18.3879 159 20.7109 159H198.056C200.383 159 203.702 156.855 203.763 154.222L203.768 148.607H125.532Z" fill="#D9E0E4"/>
</g>
<mask id="mask1_1_1076" style="mask-type:luminance" maskUnits="userSpaceOnUse" x="15" y="42" width="189" height="117">
<path d="M15 159H204V42H15V159Z" fill="white"/>
</mask>
<g mask="url(#mask1_1_1076)">
<path fill-rule="evenodd" clip-rule="evenodd" d="M41.8144 135.326H177.184V51.0543H41.8144V135.326ZM111.519 45.9967C111.519 47.1125 110.615 48.0165 109.5 48.0165C108.385 48.0165 107.481 47.1125 107.481 45.9967C107.481 44.881 108.385 43.977 109.5 43.977C110.615 43.977 111.519 44.881 111.519 45.9967ZM41.8782 146V144.25H53.0833V146H165.128V144.25H176.334V146H180.789C183.65 146 186 143.652 186 140.787V47.2038C186 44.3397 183.65 42 180.789 42H38.2104C35.3472 42 33 44.3397 33 47.2038V140.787C33 143.652 35.3472 146 38.2104 146H41.8782Z" fill="#D4DBE0"/>
</g>
<path d="M93 75H48C47.4477 75 47 75.4477 47 76C47 76.5523 47.4477 77 48 77H93C93.5523 77 94 76.5523 94 76C94 75.4477 93.5523 75 93 75Z" fill="#E8ECF0"/>
<path d="M71 69H48C47.4477 69 47 69.4477 47 70V71C47 71.5523 47.4477 72 48 72H71C71.5523 72 72 71.5523 72 71V70C72 69.4477 71.5523 69 71 69Z" fill="#E8ECF0"/>
<path d="M70 79H48C47.4477 79 47 79.4477 47 80C47 80.5523 47.4477 81 48 81H70C70.5523 81 71 80.5523 71 80C71 79.4477 70.5523 79 70 79Z" fill="#E8ECF0"/>
<path fill-rule="evenodd" clip-rule="evenodd" d="M70.7786 58H61.2216C61.0994 58 61 58.2945 61 58.6586C61 59.0219 61.0994 59.3165 61.2216 59.3165H70.7786C70.9009 59.3165 71 59.0219 71 58.6586C71 58.2945 70.9009 58 70.7786 58Z" fill="#D4DBE0"/>
<path fill-rule="evenodd" clip-rule="evenodd" d="M83.7786 58H74.2216C74.0994 58 74 58.2945 74 58.6586C74 59.0219 74.0994 59.3165 74.2216 59.3165H83.7786C83.9009 59.3165 84 59.0219 84 58.6586C84 58.2945 83.9009 58 83.7786 58Z" fill="#D4DBE0"/>
<path fill-rule="evenodd" clip-rule="evenodd" d="M56.7786 58H47.2216C47.0994 58 47 58.2945 47 58.6586C47 59.0219 47.0994 59.3165 47.2216 59.3165H56.7786C56.9009 59.3165 57 59.0219 57 58.6586C57 58.2945 56.9009 58 56.7786 58Z" fill="#D4DBE0"/>
<path d="M87.9051 134.413C88.5984 133.879 92.63 134.008 100 134.8V137.8H88C87.2435 136.076 87.2119 134.947 87.9051 134.413Z" fill="#E5858C"/>
<path style="mix-blend-mode:multiply" d="M87.9051 134.413C88.5984 133.879 92.63 134.008 100 134.8V137.8H88C87.2435 136.076 87.2119 134.947 87.9051 134.413Z" fill="url(#paint0_linear_1_1076)" fill-opacity="0.4"/>
<path d="M90.927 158.462C91.6203 158.75 95.5086 158.672 102.592 158.227V156.61H90.5921C90.1222 157.557 90.2338 158.174 90.927 158.462Z" fill="#E5858C"/>
<path style="mix-blend-mode:multiply" d="M90.927 158.462C91.6203 158.75 95.5086 158.672 102.592 158.227V156.61H90.5921C90.1222 157.557 90.2338 158.174 90.927 158.462Z" fill="url(#paint1_linear_1_1076)"/>
<path fill-rule="evenodd" clip-rule="evenodd" d="M150.743 187.99C150.743 187.99 148.805 153.148 141.404 142.159C134.004 131.171 123.54 130.734 122.733 132.325C119.826 135.232 134.587 148.055 134.587 155.408V164.461C134.587 167.778 131.898 170.466 128.581 170.466H99.5672C99.5672 170.466 109.08 182.847 116.476 188.777C123.871 194.708 138.926 208.818 138.926 208.818L150.743 187.99Z" fill="#EF888B"/>
<path fill-rule="evenodd" clip-rule="evenodd" d="M87.8599 134.436C88.2628 133.919 96.9731 137.857 97.0021 141.401C97.0311 144.945 92.884 143.432 92.884 143.432C92.884 143.432 98.0154 145.788 97.9395 148.115C97.8635 150.441 93.4588 151.681 93.4588 151.681C93.4588 151.681 95.9092 152.764 95.9914 154.68C96.0735 156.595 91.1259 158.46 91.1259 158.46C91.1259 158.46 89.7442 158.843 89.2564 153.73C89.1542 151.709 90.0774 151.169 90.0774 151.169C90.0774 151.169 88.5668 150.143 88.3052 146.198C88.2022 144.362 88.985 143.004 88.985 143.004C88.985 143.004 87.5041 141.637 87.2314 137.916C86.9757 134.796 87.8599 134.436 87.8599 134.436Z" fill="#EF888B"/>
<path fill-rule="evenodd" clip-rule="evenodd" d="M96.4459 143.099L96.4465 143.097C96.6263 142.904 96.7656 142.651 96.8597 142.334C95.4616 143.459 90.0266 140.952 88.2725 141.956C88.649 142.667 88.9851 143.005 88.9851 143.005C88.9851 143.005 89.1101 142.455 92.884 143.432C94.9918 143.978 95.9727 143.567 96.4459 143.099Z" fill="#E17981"/>
<path fill-rule="evenodd" clip-rule="evenodd" d="M89.4349 150.411C89.7384 150.878 90.0032 151.109 90.0433 151.138C90.4729 151.089 91.4071 151.151 93.4677 151.679C93.5118 151.665 96.6681 150.757 97.6422 149.051C96.2516 150.124 91.9145 150.428 89.4349 150.411Z" fill="#E17981"/>
<path fill-rule="evenodd" clip-rule="evenodd" d="M89.993 157.311C90.4882 158.659 91.1257 158.46 91.1257 158.46C91.1257 158.46 94.5707 157.372 95.6452 155.655C94.2809 156.612 91.7912 157.386 89.993 157.311Z" fill="#E17981"/>
<path fill-rule="evenodd" clip-rule="evenodd" d="M139.968 197.369L139.964 197.368C128.578 196.15 113.439 185.783 112.762 185.317C113.865 186.327 114.98 187.311 116.097 188.207C121.103 192.221 129.547 199.919 134.525 204.514C135.858 202.454 137.774 199.928 139.968 197.369Z" fill="#E17981"/>
<path fill-rule="evenodd" clip-rule="evenodd" d="M184.591 214.507H186.655C171.549 199.345 157.229 185.611 155.151 185.435C149.174 184.929 132.425 205.185 132.63 208.562C132.655 208.95 133.802 211.063 135.841 214.507H184.591Z" fill="#D44454"/>
<path fill-rule="evenodd" clip-rule="evenodd" d="M130.827 172.802C136.442 170.359 134.705 163.542 134.705 163.542L134.583 163.591C134.583 167.467 132.166 170.454 127.402 170.454H108.406C108.406 170.454 125.211 175.246 130.827 172.802Z" fill="#E17981"/>
<path fill-rule="evenodd" clip-rule="evenodd" d="M128.487 170.088H99.5058C96.1703 170.088 93.4664 167.384 93.4664 164.05V93.0615C93.4664 89.7268 96.1703 87.0221 99.5058 87.0221H128.487C131.822 87.0221 134.526 89.7268 134.526 93.0615V164.05C134.526 167.384 131.822 170.088 128.487 170.088Z" fill="#1A3F61"/>
<path fill-rule="evenodd" clip-rule="evenodd" d="M128.487 170.088H99.5058C96.1703 170.088 93.4664 167.384 93.4664 164.05V93.0615C93.4664 89.7268 96.1703 87.0221 99.5058 87.0221H128.487C131.822 87.0221 134.526 89.7268 134.526 93.0615V164.05C134.526 167.384 131.822 170.088 128.487 170.088Z" stroke="#1A3F61" stroke-width="0.746528"/>
<path fill-rule="evenodd" clip-rule="evenodd" d="M128.046 88.9703H125.093C124.752 88.9703 124.448 89.1846 124.332 89.5063L123.92 90.6642C123.65 91.416 122.938 91.9176 122.14 91.9176H105.736C104.892 91.9176 104.151 91.3585 103.919 90.5478L103.636 89.5556C103.536 89.2092 103.22 88.9703 102.859 88.9703H99.9464C97.4724 88.9703 95.4672 90.9763 95.4672 93.4495V163.661C95.4672 166.135 97.4724 168.14 99.9464 168.14H128.046C130.52 168.14 132.526 166.135 132.526 163.661V93.4495C132.526 90.9763 130.52 88.9703 128.046 88.9703Z" fill="#FEFEFE"/>
<path fill-rule="evenodd" clip-rule="evenodd" d="M105.769 130.885C105.769 131.925 104.925 132.769 103.885 132.769C102.844 132.769 102 131.925 102 130.885C102 129.844 102.844 129 103.885 129C104.925 129 105.769 129.844 105.769 130.885Z" fill="#D44454"/>
<path fill-rule="evenodd" clip-rule="evenodd" d="M110.824 130.885C110.824 131.925 109.98 132.769 108.939 132.769C107.899 132.769 107.055 131.925 107.055 130.885C107.055 129.844 107.899 129 108.939 129C109.98 129 110.824 129.844 110.824 130.885Z" fill="#00B1E6"/>
<path fill-rule="evenodd" clip-rule="evenodd" d="M115.878 130.885C115.878 131.925 115.034 132.769 113.994 132.769C112.953 132.769 112.109 131.925 112.109 130.885C112.109 129.844 112.953 129 113.994 129C115.034 129 115.878 129.844 115.878 130.885Z" fill="#FFBB58"/>
<path fill-rule="evenodd" clip-rule="evenodd" d="M120.933 130.885C120.933 131.925 120.089 132.769 119.048 132.769C118.008 132.769 117.164 131.925 117.164 130.885C117.164 129.844 118.008 129 119.048 129C120.089 129 120.933 129.844 120.933 130.885Z" fill="#F2F5F8"/>
<path fill-rule="evenodd" clip-rule="evenodd" d="M125.987 130.885C125.987 131.925 125.143 132.769 124.103 132.769C123.062 132.769 122.218 131.925 122.218 130.885C122.218 129.844 123.062 129 124.103 129C125.143 129 125.987 129.844 125.987 130.885Z" fill="#F2F5F8"/>
<path fill-rule="evenodd" clip-rule="evenodd" d="M150.743 187.99C150.743 187.99 148.805 153.148 141.404 142.159C134.004 131.171 123.54 130.734 122.733 132.325C119.826 135.232 134.587 148.055 134.587 155.408V164.461C134.587 167.778 131.898 170.466 128.581 170.466H99.5672C99.5672 170.466 109.08 182.847 116.476 188.777C123.871 194.708 138.926 208.818 138.926 208.818L150.743 187.99Z" fill="#EF888B"/>
<path fill-rule="evenodd" clip-rule="evenodd" d="M87.8599 134.436C88.2628 133.919 96.9731 137.857 97.0021 141.401C97.0311 144.945 92.884 143.432 92.884 143.432C92.884 143.432 98.0154 145.788 97.9395 148.115C97.8635 150.441 93.4588 151.681 93.4588 151.681C93.4588 151.681 95.9092 152.764 95.9914 154.68C96.0735 156.595 91.1259 158.46 91.1259 158.46C91.1259 158.46 89.7442 158.843 89.2564 153.73C89.1542 151.709 90.0774 151.169 90.0774 151.169C90.0774 151.169 88.5668 150.143 88.3052 146.198C88.2022 144.362 88.985 143.004 88.985 143.004C88.985 143.004 87.5041 141.637 87.2314 137.916C86.9757 134.796 87.8599 134.436 87.8599 134.436Z" fill="#EF888B"/>
<path fill-rule="evenodd" clip-rule="evenodd" d="M96.4459 143.099L96.4465 143.097C96.6263 142.904 96.7656 142.651 96.8597 142.334C95.4616 143.459 90.0266 140.952 88.2725 141.956C88.649 142.667 88.9851 143.005 88.9851 143.005C88.9851 143.005 89.1101 142.455 92.884 143.432C94.9918 143.978 95.9727 143.567 96.4459 143.099Z" fill="#E17981"/>
<path fill-rule="evenodd" clip-rule="evenodd" d="M89.4349 150.411C89.7384 150.878 90.0032 151.109 90.0433 151.138C90.4729 151.089 91.4071 151.151 93.4677 151.679C93.5118 151.665 96.6681 150.757 97.6422 149.051C96.2516 150.124 91.9145 150.428 89.4349 150.411Z" fill="#E17981"/>
<path fill-rule="evenodd" clip-rule="evenodd" d="M89.993 157.311C90.4882 158.659 91.1257 158.46 91.1257 158.46C91.1257 158.46 94.5707 157.372 95.6452 155.655C94.2809 156.612 91.7912 157.386 89.993 157.311Z" fill="#E17981"/>
<path fill-rule="evenodd" clip-rule="evenodd" d="M139.968 197.369L139.964 197.368C128.578 196.15 113.439 185.783 112.762 185.317C113.865 186.327 114.98 187.311 116.097 188.207C121.103 192.221 129.547 199.919 134.525 204.514C135.858 202.454 137.774 199.928 139.968 197.369Z" fill="#E17981"/>
<path fill-rule="evenodd" clip-rule="evenodd" d="M184.591 214.507H186.655C171.549 199.345 157.229 185.611 155.151 185.435C149.174 184.929 132.425 205.185 132.63 208.562C132.655 208.95 133.802 211.063 135.841 214.507H184.591Z" fill="#D44454"/>
<path fill-rule="evenodd" clip-rule="evenodd" d="M130.827 172.802C136.442 170.359 134.705 163.542 134.705 163.542L134.583 163.591C134.583 167.467 132.166 170.454 127.402 170.454H108.406C108.406 170.454 125.211 175.246 130.827 172.802Z" fill="#E17981"/>
<g clip-path="url(#clip1_1_1076)">
<path d="M112.667 108.357L115.334 115.341H118L115.334 108.357H112.667Z" fill="#3EA6DE"/>
<path d="M120.506 106.386C120.506 105.636 121.115 105 122 105C122.885 105 123.494 105.636 123.494 106.386C123.494 107.135 122.885 107.786 122 107.786C121.115 107.786 120.506 107.135 120.506 106.386Z" fill="#E02146"/>
<path d="M123.333 108.357V115.341L126 108.357H123.333Z" fill="#97C6DD"/>
<path d="M123.333 108.357H120.667V115.341L123.333 108.357Z" fill="#E02146"/>
<path d="M120.667 115.341H123.333V108.357L120.667 115.341Z" fill="#6A2E4A"/>
<path d="M112.667 108.357L112.667 115.341L115.333 108.357H112.667Z" fill="#97C6DD"/>
<path d="M112.667 108.357H110V115.341L112.667 108.357Z" fill="#E02146"/>
<path d="M110 115.341H112.667V108.357L110 115.341Z" fill="#6A2E4A"/>
<path d="M104.667 115.341C104.427 115.969 104.088 116.133 103.522 116.133C103.159 116.133 102.871 116.077 102.597 115.992L102.552 117.859C102.927 117.958 103.404 118 103.825 118C105.681 118 106.558 117.373 107.118 115.906L107.334 115.342L104.667 115.341ZM112.667 108.357L115.334 115.341H118L115.334 108.357H112.667ZM109.84 106.386C109.84 105.636 110.449 105 111.333 105C112.218 105 112.827 105.636 112.827 106.386C112.827 107.135 112.218 107.786 111.333 107.786C110.449 107.786 109.84 107.135 109.84 106.386Z" fill="#E02146"/>
<path d="M118 108.357L116.667 111.85L118 115.341L120.667 108.357H118ZM107.333 108.357L106 111.85L107.333 115.342L110 108.357H107.333Z" fill="#6A2E4A"/>
<path d="M102 108.357L104.667 115.341H107.333L104.667 108.357H102Z" fill="#E02146"/>
<path d="M104.667 108.357H102L103.333 111.85L104.667 108.357Z" fill="#6A2E4A"/>
<path d="M115.333 108.357H112.667L114 111.85L115.333 108.357ZM115.334 115.342H118L116.667 111.85L115.334 115.342ZM104.666 115.342H107.333L106 111.85L104.666 115.342Z" fill="#BA3353"/>
</g>
<mask id="mask2_1_1076" style="mask-type:luminance" maskUnits="userSpaceOnUse" x="100" y="69" width="22" height="12">
<path d="M122 69H100V81H122V69Z" fill="white"/>
</mask>
<g mask="url(#mask2_1_1076)">
<path d="M109.778 72.0986L112.222 78.5459H114.667L112.222 72.0986H109.778Z" fill="#3EA6DE"/>
<path d="M116.964 70.2792C116.964 69.5874 117.522 69 118.333 69C119.144 69 119.703 69.5874 119.703 70.2792C119.703 70.9709 119.144 71.5714 118.333 71.5714C117.522 71.5714 116.964 70.9709 116.964 70.2792Z" fill="#E02146"/>
<path d="M119.556 72.0988V78.546L122 72.0988H119.556Z" fill="#97C6DD"/>
<path d="M119.556 72.0988H117.111V78.546L119.556 72.0988Z" fill="#E02146"/>
<path d="M117.111 78.5459H119.556V72.0988L117.111 78.5459Z" fill="#6A2E4A"/>
<path d="M109.778 72.0988V78.546L112.222 72.0988H109.778Z" fill="#97C6DD"/>
<path d="M109.778 72.0988H107.333V78.546L109.778 72.0988Z" fill="#E02146"/>
<path d="M107.334 78.5459H109.778V72.0988L107.334 78.5459Z" fill="#6A2E4A"/>
<path d="M102.445 78.546C102.225 79.125 101.914 79.277 101.395 79.277C101.063 79.277 100.798 79.2248 100.547 79.1464L100.506 80.8695C100.849 80.9609 101.287 81 101.673 81C103.375 81 104.179 80.4209 104.692 79.0671L104.889 78.546H102.445ZM109.778 72.0986L112.222 78.5459H114.667L112.222 72.0986H109.778ZM107.186 70.2792C107.186 69.5874 107.745 69 108.556 69C109.367 69 109.925 69.5874 109.925 70.2792C109.925 70.9709 109.367 71.5714 108.556 71.5714C107.745 71.5714 107.186 70.9709 107.186 70.2792Z" fill="#E02146"/>
<path d="M114.667 72.0988L113.444 75.3228L114.667 78.546L117.111 72.0988H114.667ZM104.889 72.0988L103.667 75.3228L104.889 78.5461L107.333 72.0988H104.889Z" fill="#6A2E4A"/>
<path d="M100 72.0986L102.444 78.5459H104.889L102.445 72.0986H100Z" fill="#E02146"/>
<path d="M102.445 72.0986H100L101.222 75.3228L102.445 72.0986Z" fill="#6A2E4A"/>
<path d="M112.222 72.0986H109.778L111 75.3228L112.222 72.0986ZM112.222 78.5461H114.667L113.445 75.3229L112.222 78.5461ZM102.444 78.5461H104.889L103.667 75.3229L102.444 78.5461Z" fill="#BA3353"/>
</g>
</g>
<defs>
<linearGradient id="paint0_linear_1_1076" x1="717.014" y1="134.09" x2="717.014" y2="505.053" gradientUnits="userSpaceOnUse">
<stop stop-color="white" stop-opacity="0.5"/>
<stop offset="1" stop-opacity="0.5"/>
</linearGradient>
<linearGradient id="paint1_linear_1_1076" x1="704.548" y1="158.632" x2="704.548" y2="-43.6084" gradientUnits="userSpaceOnUse">
<stop stop-color="white" stop-opacity="0.5"/>
<stop offset="1" stop-opacity="0.5"/>
</linearGradient>
<clipPath id="clip0_1_1076">
<rect width="219" height="214" fill="white"/>
</clipPath>
<clipPath id="clip1_1_1076">
<rect width="24" height="13" fill="white" transform="translate(102 105)"/>
</clipPath>
</defs>
</svg>
