<?xml version="1.0" encoding="UTF-8"?>
<svg width="180px" height="180px" viewBox="0 0 180 180" version="1.1" xmlns="http://www.w3.org/2000/svg" xmlns:xlink="http://www.w3.org/1999/xlink">
    <!-- Generator: sketchtool 62 (101010) - https://sketch.com -->
    <title>0D560A9F-DC12-44DA-89EC-6F657D0182BE</title>
    <desc>Created with sketchtool.</desc>
    <defs>
        <path d="M170.397506,1.64752397 C172.594204,-0.549174658 176.155757,-0.549174658 178.352455,1.64752397 C180.549154,3.8442226 180.549154,7.40577478 178.352455,9.60247341 L178.352455,9.60247341 L9.60249448,178.352434 C7.40579585,180.549133 3.84424368,180.549133 1.64754505,178.352434 C-0.549153585,176.155736 -0.549153585,172.594183 1.64754505,170.397485 L1.64754505,170.397485 Z M90.0000001,123.749971 C105.534098,123.749971 118.124994,136.340867 118.124994,151.874965 C118.124994,167.409063 105.534098,179.999958 90.0000001,179.999958 C74.465902,179.999958 61.8750067,167.409063 61.8750067,151.874965 C61.8750067,136.340867 74.465902,123.749971 90.0000001,123.749971 Z M90.0000001,134.999969 C80.679104,134.999969 73.1250041,142.554069 73.1250041,151.874965 C73.1250041,161.195861 80.679104,168.749961 90.0000001,168.749961 C99.3208963,168.749961 106.874996,161.195861 106.874996,151.874965 C106.874996,142.554069 99.3208963,134.999969 90.0000001,134.999969 Z M107.711549,98.217152 C108.972318,95.3778861 112.296054,94.0982618 115.135319,95.359031 C122.065927,98.4365507 128.363112,102.760646 133.727466,108.124999 C135.924164,110.321698 135.924164,113.88325 133.727466,116.079949 C131.530767,118.276647 127.969215,118.276647 125.772516,116.079949 C121.385197,111.69263 116.236897,108.157441 110.56967,105.640922 C107.730404,104.380153 106.45078,101.056418 107.711549,98.217152 Z M84.0401262,56.4329162 C87.1409673,56.2438275 89.8079822,58.6042693 89.9970708,61.7051103 C90.1861595,64.8059514 87.8257178,67.4729663 84.7248767,67.662055 C64.2088414,68.9131184 44.8564419,77.6492812 30.3467173,92.2082152 C28.1537405,94.4086294 24.5921934,94.4146586 22.3917792,92.2216818 C20.191365,90.028705 20.1853358,86.467158 22.3783126,84.2667438 C38.8316536,67.7576017 60.7755156,57.8515872 84.0401262,56.4329162 Z M129.780571,70.9232961 C131.323758,68.2270868 134.760467,67.2923774 137.456677,68.8355641 C144.827844,73.054483 151.603057,78.2401266 157.617595,84.2626415 C159.812837,86.4607953 159.810477,90.0223467 157.612323,92.2175892 C155.414169,94.4128316 151.852618,94.4104714 149.657376,92.2123175 C144.348468,86.8963686 138.370694,82.3210723 131.868303,78.5994016 C129.172094,77.0562149 128.237384,73.6195054 129.780571,70.9232961 Z M1.78755744,57.2447624 C31.6609858,29.3707368 72.9522641,17.2620503 113.148315,24.5861064 C116.204596,25.1429864 118.230761,28.0720322 117.673882,31.1283133 C117.117002,34.1845945 114.187956,36.2107595 111.131675,35.6538795 C74.4336908,28.9672005 36.7360287,40.0220573 9.46248209,65.4702091 C7.19108771,67.589581 3.63166835,67.4663424 1.51229643,65.1949481 C-0.607075487,62.9235537 -0.483836935,59.3641343 1.78755744,57.2447624 Z M151.332942,44.2481309 C152.990822,41.6208886 156.464601,40.8350656 159.091843,42.492946 C165.907164,46.7936487 172.30832,51.7332012 178.213409,57.2456645 C180.484306,59.3655702 180.606708,62.9250184 178.486802,65.1959146 C176.366896,67.4668108 172.807448,67.5892127 170.536552,65.469307 C165.146775,60.4378936 159.305692,55.9305301 153.088127,52.007032 C150.460884,50.3491515 149.675061,46.8753731 151.332942,44.2481309 Z" id="path-1"></path>
    </defs>
    <g id="Page-1" stroke="none" stroke-width="1" fill="none" fill-rule="evenodd">
        <g id="L---error-no-wifi" transform="translate(-870.000000, -227.000000)">
            <g id="Icon/Interface-Essential-/-Form-Validation-/-check-circle-1" transform="translate(870.000000, 227.000000)">
                <mask id="mask-2" fill="white">
                    <use xlink:href="#path-1"></use>
                </mask>
                <use id="Combined-Shape" fill="#000000" fill-rule="nonzero" xlink:href="#path-1"></use>
                <g id="Colour/Primary/Dark" mask="url(#mask-2)" fill="#C8192C">
                    <g transform="translate(-7.500000, -7.500000)" id="Rectangle">
                        <rect x="0" y="0" width="195" height="195" rx="1.66666667"></rect>
                    </g>
                </g>
            </g>
        </g>
    </g>
</svg>