<?xml version="1.0" encoding="UTF-8"?>
<svg width="86px" height="81px" viewBox="0 0 86 81" version="1.1" xmlns="http://www.w3.org/2000/svg" xmlns:xlink="http://www.w3.org/1999/xlink">
    <!-- Generator: sketchtool 62 (101010) - https://sketch.com -->
    <title>006E8178-98C4-4F2D-AAB6-73A874FE578B</title>
    <desc>Created with sketchtool.</desc>
    <defs>
        <path d="M42.5,0.657241475 C45.400914,0.657241475 48.0726627,2.23367501 49.4753125,4.77294176 L49.4753125,4.77294176 L49.4858276,4.79216455 L84.0068363,68.5234375 C85.3696357,70.9918049 85.3265757,73.9965808 83.8936044,76.4248833 C82.4605593,78.8533108 79.8508853,80.34375 77.03125,80.34375 L77.03125,80.34375 L7.96875,80.34375 C5.14911472,80.34375 2.53944073,78.8533108 1.10639563,76.4248833 C-0.326575692,73.9965808 -0.369635717,70.9918049 0.982922381,68.5421646 L0.982922381,68.5421646 L35.5246875,4.77294176 C36.9273373,2.23367501 39.599086,0.657241475 42.5,0.657241475 Z M42.5,59.09375 L42.0744402,59.1162091 C40.1169507,59.3240482 38.5827752,60.9493908 38.5188599,62.9458743 L38.5188599,62.9458743 L38.5390048,63.5122666 C38.7553255,65.508555 40.4461911,67.0625 42.5,67.0625 C44.7005096,67.0625 46.484375,65.2786346 46.484375,63.078125 C46.484375,61.0243161 44.93043,59.3334505 42.9341416,59.1171298 L42.9341416,59.1171298 L42.5,59.09375 Z M42.5,24.5625 C41.0329936,24.5625 39.84375,25.7517436 39.84375,27.21875 L39.84375,27.21875 L39.84375,51.125 L39.8489758,51.2929854 C39.9356412,52.6817274 41.089417,53.78125 42.5,53.78125 C43.9670064,53.78125 45.15625,52.5920064 45.15625,51.125 L45.15625,51.125 L45.15625,27.21875 L45.1510242,27.0507646 C45.0643588,25.6620226 43.910583,24.5625 42.5,24.5625 Z" id="path-1"></path>
    </defs>
    <g id="Page-1" stroke="none" stroke-width="1" fill="none" fill-rule="evenodd">
        <g id="L---Abort-load-driving-license" transform="translate(-448.000000, -845.000000)">
            <g id="Group-2" transform="translate(402.000000, 800.000000)">
                <g id="Icon/Interface-Essential-/-Alerts-/-information-circle" transform="translate(46.000000, 45.000000)">
                    <g id="Shape-+-Shape-+-Shape-+-Shape-+-Shape-+-Colour/Primary/Dark-Mask" transform="translate(0.541667, 0.000000)">
                        <mask id="mask-2" fill="white">
                            <use xlink:href="#path-1"></use>
                        </mask>
                        <use id="Mask" fill="#000000" fill-rule="nonzero" xlink:href="#path-1"></use>
                        <g id="Colour/Primary/Dark" mask="url(#mask-2)" fill="#DB6E07">
                            <g transform="translate(-3.541667, -5.541667)" id="Rectangle">
                                <rect x="0" y="0" width="92.0833333" height="92.0833333" rx="1.66666667"></rect>
                            </g>
                        </g>
                    </g>
                </g>
            </g>
        </g>
    </g>
</svg>