<?xml version="1.0" encoding="UTF-8"?>
<svg xmlns="http://www.w3.org/2000/svg" version="1.1" viewBox="0 0 120 120">
  <g fill="none" fill-rule="evenodd">
    <g fill="#029B17">
      <path d="m60-6.6691e-15c-33.137 0-60 26.863-60 60s26.863 60 60 60 60-26.863 60-60c-0.038574-33.121-26.879-59.961-60-60zm34.635 41-34.225 46.445c-0.81623 1.0829-2.0334 1.7925-3.3779 1.9693-1.3445 0.17676-2.7037-0.19411-3.7721-1.0293l-24.44-19.54c-2.1567-1.7259-2.5059-4.8733-0.78-7.03 1.7259-2.1567 4.8733-2.5059 7.03-0.78l20.38 16.305 31.135-42.255c1.021-1.532 2.8013-2.3791 4.6341-2.2048 1.8328 0.17427 3.4216 1.3417 4.1355 3.0387 0.71392 1.697 0.43749 3.6491-0.71953 5.0811z"/>
    </g>
  </g>
</svg>
