<?xml version="1.0" encoding="UTF-8"?>
<svg width="180px" height="180px" viewBox="0 0 180 180" version="1.1" xmlns="http://www.w3.org/2000/svg" xmlns:xlink="http://www.w3.org/1999/xlink">
    <!-- Generator: sketchtool 62 (101010) - https://sketch.com -->
    <title>758646F6-B6AF-4EA8-86D3-4C6B925E284F</title>
    <desc>Created with sketchtool.</desc>
    <defs>
        <path d="M90,0 C139.705627,0 180,40.2943725 180,90 C180,139.705627 139.705627,180 90,180 C40.2943725,180 0,139.705627 0,90 C0,40.2943725 40.2943725,0 90,0 Z M117.842788,62.1578369 C115.646262,59.9609652 112.084709,59.9606853 109.887837,62.1572118 L109.887837,62.1572118 L90,82.041 L70.1121631,62.1572118 L69.92599,61.9792532 C67.7184806,59.9623958 64.2927238,60.0219894 62.1572118,62.1578369 L62.1572118,62.1578369 L61.9792532,62.34401 C59.9623958,64.5515194 60.0219894,67.9772762 62.1578369,70.1127882 L62.1578369,70.1127882 L82.044,89.996 L62.1578369,109.879712 L61.979849,110.065857 C59.9626447,112.273049 60.0216999,115.698816 62.1572118,117.834663 L62.1572118,117.834663 L62.343357,118.012651 C64.5505494,120.029855 67.9763156,119.9708 70.1121631,117.835288 L70.1121631,117.835288 L90,97.95 L109.887837,117.835288 L110.07401,118.013247 C112.281519,120.030104 115.707276,119.970511 117.842788,117.834663 L117.842788,117.834663 L118.020747,117.64849 C120.037604,115.440981 119.978011,112.015224 117.842163,109.879712 L117.842163,109.879712 L97.955,89.996 L117.842163,70.1127882 L118.020151,69.926643 C120.037355,67.7194506 119.9783,64.2936844 117.842788,62.1578369 Z" id="path-1"></path>
    </defs>
    <g id="Page-1" stroke="none" stroke-width="1" fill="none" fill-rule="evenodd">
        <g id="L---error-scan-error" transform="translate(-870.000000, -227.000000)">
            <g id="Icon/Interface-Essential-/-Form-Validation-/-check-circle-1" transform="translate(870.000000, 227.000000)">
                <g id="Shape-+-Oval-+-Colour/Primary/Dark-Mask">
                    <mask id="mask-2" fill="white">
                        <use xlink:href="#path-1"></use>
                    </mask>
                    <use id="Mask" fill="#000000" fill-rule="nonzero" xlink:href="#path-1"></use>
                    <g id="Colour/Primary/Dark" mask="url(#mask-2)" fill="#C8192C">
                        <g transform="translate(-7.500000, -7.500000)" id="Rectangle">
                            <rect x="0" y="0" width="195" height="195" rx="1.66666667"></rect>
                        </g>
                    </g>
                </g>
            </g>
        </g>
    </g>
</svg>