<?xml version="1.0" encoding="UTF-8"?>
<svg width="180px" height="180px" viewBox="0 0 180 180" version="1.1" xmlns="http://www.w3.org/2000/svg" xmlns:xlink="http://www.w3.org/1999/xlink">
    <!-- Generator: sketchtool 62 (101010) - https://sketch.com -->
    <title>F6E952EA-8F25-4636-8E39-68D10D80832D</title>
    <desc>Created with sketchtool.</desc>
    <defs>
        <path d="M90,0 C139.705627,0 180,40.2943725 180,90 C180,139.705627 139.705627,180 90,180 C40.2943725,180 0,139.705627 0,90 C0,40.2943725 40.2943725,0 90,0 Z M84.375,73.125 L78.75,73.125 L78.5291263,73.1292569 C75.5249022,73.2452572 73.125,75.717365 73.125,78.75 C73.125,81.8566017 75.6433983,84.375 78.75,84.375 L78.75,84.375 L84.375,84.375 L84.375,112.5 L84.3779857,112.820664 C84.5489158,121.99249 92.037319,129.375 101.25,129.375 L101.25,129.375 L106.875,129.375 L107.095874,129.370743 C110.100098,129.254743 112.5,126.782635 112.5,123.75 C112.5,120.643398 109.981602,118.125 106.875,118.125 L106.875,118.125 L101.25,118.125 L101.029126,118.120743 C98.0249022,118.004743 95.625,115.532635 95.625,112.5 L95.625,112.5 L95.625,84.375 L95.6213257,84.0846324 C95.4673129,78.0056264 90.4911221,73.125 84.375,73.125 L84.375,73.125 Z M87.1875,45 L87.1841789,45 L86.9309783,45.0038244 C82.389749,45.1394287 78.75,48.8634099 78.75,53.4375 C78.75,58.0974026 82.5275974,61.875 87.1875,61.875 C91.8474026,61.875 95.625,58.0974026 95.625,53.4375 C95.625,48.7775974 91.8474026,45 87.1875,45 L87.1875,45 Z" id="path-1"></path>
    </defs>
    <g id="Page-1" stroke="none" stroke-width="1" fill="none" fill-rule="evenodd">
        <g id="L---Abort-load-driving-license" transform="translate(-871.000000, -227.000000)">
            <g id="Icon/Interface-Essential-/-Form-Validation-/-check-circle-1" transform="translate(871.000000, 227.000000)">
                <g id="Shape-+-Oval-+-Colour/Primary/Dark-Mask">
                    <mask id="mask-2" fill="white">
                        <use xlink:href="#path-1"></use>
                    </mask>
                    <use id="Mask" fill="#000000" fill-rule="nonzero" xlink:href="#path-1"></use>
                    <g id="Colour/Primary/Dark" mask="url(#mask-2)" fill="#004C92">
                        <g transform="translate(-7.500000, -7.500000)" id="Rectangle">
                            <rect x="0" y="0" width="195" height="195" rx="1.66666667"></rect>
                        </g>
                    </g>
                </g>
            </g>
        </g>
    </g>
</svg>